HIERARCHY
ROOT RootJoint
{
    OFFSET   0.000000   0.000000   0.000000
    CHANNELS 6 Xposition Yposition Zposition Xrotation Yrotation Zrotation
    JOINT pelvis_lowerback
    {
        OFFSET   0.000000   0.093605   0.000000
        CHANNELS 3 Xrotation Yrotation Zrotation
        JOINT lowerback_torso
        {
            OFFSET   0.000000   0.100000   0.000000
            CHANNELS 3 Xrotation Yrotation Zrotation
            JOINT torso_head
            {
                OFFSET   0.000000   0.282350   0.000000
                CHANNELS 3 Xrotation Yrotation Zrotation
                End Site
                {
                    OFFSET   0.000000   0.192650   0.000000
                }
            }
            JOINT rTorso_Clavicle
            {
                OFFSET  -0.001000   0.157500   0.000000
                CHANNELS 3 Xrotation Yrotation Zrotation
                JOINT rShoulder
                {
                    OFFSET  -0.117647   0.000000   0.000000
                    CHANNELS 3 Xrotation Yrotation Zrotation
                    JOINT rElbow
                    {
                        OFFSET  -0.245000   0.000000   0.000000
                        CHANNELS 3 Xrotation Yrotation Zrotation
                        JOINT rWrist
                        {
                            OFFSET  -0.240000   0.000000   0.000000
                            CHANNELS 3 Xrotation Yrotation Zrotation
                            End Site
                            {
                                OFFSET  -0.116353  -0.002500   0.000000
                            }
                        }
                    }
                }
            }
            JOINT lTorso_Clavicle
            {
                OFFSET   0.001000   0.157500   0.000000
                CHANNELS 3 Xrotation Yrotation Zrotation
                JOINT lShoulder
                {
                    OFFSET   0.117647   0.000000   0.000000
                    CHANNELS 3 Xrotation Yrotation Zrotation
                    JOINT lElbow
                    {
                        OFFSET   0.245000   0.000000   0.000000
                        CHANNELS 3 Xrotation Yrotation Zrotation
                        JOINT lWrist
                        {
                            OFFSET   0.240000   0.000000   0.000000
                            CHANNELS 3 Xrotation Yrotation Zrotation
                            End Site
                            {
                                OFFSET   0.116353  -0.002500   0.000000
                            }
                        }
                    }
                }
            }
        }
    }
    JOINT rHip
    {
        OFFSET  -0.100000  -0.051395   0.000000
        CHANNELS 3 Xrotation Yrotation Zrotation
        JOINT rKnee
        {
            OFFSET   0.000000  -0.410000   0.000000
            CHANNELS 3 Xrotation Yrotation Zrotation
            JOINT rAnkle
            {
                OFFSET   0.000000  -0.390000   0.000000
                CHANNELS 3 Xrotation Yrotation Zrotation
                JOINT rToeJoint
                {
                    OFFSET   0.000000  -0.050000   0.130000
                    CHANNELS 3 Xrotation Yrotation Zrotation
                    End Site
                    {
                        OFFSET  -0.010000   0.002000   0.060000
                    }
                }
            }
        }
    }
    JOINT lHip
    {
        OFFSET   0.100000  -0.051395   0.000000
        CHANNELS 3 Xrotation Yrotation Zrotation
        JOINT lKnee
        {
            OFFSET   0.000000  -0.410000   0.000000
            CHANNELS 3 Xrotation Yrotation Zrotation
            JOINT lAnkle
            {
                OFFSET   0.000000  -0.390000   0.000000
                CHANNELS 3 Xrotation Yrotation Zrotation
                JOINT lToeJoint
                {
                    OFFSET   0.000000  -0.050000   0.130000
                    CHANNELS 3 Xrotation Yrotation Zrotation
                    End Site
                    {
                        OFFSET   0.010000   0.002000   0.060000
                    }
                }
            }
        }
    }
}
MOTION
Frames: 5
Frame Time:   0.008333
 -1.606512   0.762695   4.113342  79.110865  56.621252 -70.277551  80.292170   3.400630   2.863749   1.301674   0.849624  -8.220441   1.231998  -5.939689 -10.768903  -8.602130  44.710189 -22.720801 -36.927518  17.562832  -8.876188   0.005161  11.043054   0.006636  -1.309616   3.256680 -23.784271 -14.989104 -21.638063   1.153896  -4.975359   7.188924 -14.932382   0.012883 -40.786520   0.008711  -1.065381  -9.455125  21.134652 -82.323984  -4.132097  -6.742116  67.750567   0.000818  -0.000449 -18.613084  -4.397679  -4.269593  -1.415452  -0.000012  -0.000116 -79.433870   2.571261   5.825252  68.718421  -0.005752   0.002409  -7.808819  -0.879158  -7.701752 -20.214360   0.004710  -0.009872
 -1.606196   0.762855   4.112799  79.398846  56.713328 -70.447053  80.579810   3.271110   2.895607   1.267140   0.745689  -8.256629   1.250676  -6.192184 -10.731808  -8.472666  44.685978 -23.039415 -36.800636  17.695611  -9.131931   0.004412  10.779192   0.006438  -1.213708   3.170328 -24.049621 -14.767338 -21.339563   1.274174  -4.559259   7.202208 -15.527625   0.015298 -41.214206   0.010575  -0.990519  -9.401028  21.416978 -82.336223  -4.144729  -7.007183  67.816748   0.000637  -0.000413 -18.674063  -4.606578  -4.112361  -1.441096   0.000024  -0.000023 -79.119281   2.804630   5.632629  68.441536  -0.004984   0.001727  -8.629916  -0.772549  -7.613663 -19.137475   0.003676  -0.007050
 -1.605929   0.763174   4.112315  79.618627  56.800136 -70.541303  80.812304   3.139138   2.922155   1.241743   0.641402  -8.303270   1.263919  -6.433903 -10.690155  -8.331591  44.667781 -23.329526 -36.677315  17.820762  -9.350366   0.003756  10.538325   0.006087  -1.098470   3.129628 -24.258605 -14.545314 -21.044372   1.332498  -4.150132   7.216991 -16.132589   0.017028 -41.622216   0.011687  -0.882061  -9.430309  21.581980 -82.328419  -4.175578  -7.251908  67.822430   0.000506  -0.000337 -18.702836  -4.800460  -3.953562  -1.450220   0.000033   0.000008 -78.769766   3.026272   5.453547  68.116439  -0.004350   0.001233  -9.405729  -0.667520  -7.537157 -18.060285   0.002896  -0.005065
 -1.605738   0.763557   4.111920  79.789821  56.892415 -70.583219  81.003170   3.013258   2.945966   1.216701   0.542861  -8.358622   1.272616  -6.659381 -10.648701  -8.192986  44.650501 -23.589027 -36.561200  17.933376  -9.542624   0.003236  10.313271   0.005639  -0.984467   3.098294 -24.431868 -14.332543 -20.760549   1.348893  -3.758321   7.232802 -16.726306   0.017907 -42.002238   0.012038  -0.773276  -9.470106  21.675908 -82.303435  -4.213831  -7.478617  67.805775   0.000417  -0.000250 -18.714778  -4.984254  -3.799058  -1.459698   0.000042   0.000035 -78.404480   3.238185   5.288547  67.773691  -0.003797   0.000872 -10.116190  -0.566327  -7.471178 -17.027155   0.002293  -0.003606
 -1.605642   0.763953   4.111632  79.924728  56.993378 -70.585048  81.158581   2.895579   2.966548   1.187456   0.451818  -8.419152   1.277655  -6.869335 -10.609250  -8.061999  44.631659 -23.821289 -36.452727  18.033497  -9.715619   0.002848  10.102003   0.005137  -0.876736   3.064969 -24.583324 -14.130795 -20.488193   1.340063  -3.386340   7.249346 -17.298227   0.018040 -42.355416   0.011800  -0.670873  -9.504393  21.729259 -82.266901  -4.259709  -7.684988  67.784237   0.000353  -0.000174 -18.718349  -5.153630  -3.649571  -1.474298   0.000058   0.000071 -78.032440   3.440410   5.135311  67.426254  -0.003302   0.000609 -10.765521  -0.469737  -7.411539 -16.042704   0.001787  -0.002534
